# xmcd
#
# Track frame offsets: 
#        150
#        19070
#        37140
#        57220
#        73255
#        104960
#        128040
#        144295
#        148715
#        163152
#        183740
#        202275
#
# Disc length: 2915 seconds
#
# Revision: 1
# Processed by: cddbd v1.5.2PL0 Copyright (c) Steve Scherf et al.
# Submitted via: ExactAudioCopyFreeDBPlugin 1.0
#
DISCID=c60b610c
DTITLE=Andrew Bird - Armchair Apocrypha
DYEAR=07
DGENRE=
TTITLE0=Fiery Crash
TTITLE1=Imitosis
TTITLE2=Plasticities
TTITLE3=Heretics
TTITLE4=Armchairs
TTITLE5=Darkmatter
TTITLE6=Simple X
TTITLE7=The Supine
TTITLE8=Cataracts
TTITLE9=Scythian Empires
TTITLE10=Spare-Ohs
TTITLE11=Yawny At The Apocalypse
EXTD=
EXTT0=
EXTT1=
EXTT2=
EXTT3=
EXTT4=
EXTT5=
EXTT6=
EXTT7=
EXTT8=
EXTT9=
EXTT10=
EXTT11=
PLAYORDER=
